<?xml version="1.0" encoding="utf-8"?>
<!-- Generator: Adobe Illustrator 15.0.2, SVG Export Plug-In . SVG Version: 6.00 Build 0)  -->
<!DOCTYPE svg PUBLIC "-//W3C//DTD SVG 1.1//EN" "http://www.w3.org/Graphics/SVG/1.1/DTD/svg11.dtd">
<svg version="1.1" id="Layer_1" xmlns="http://www.w3.org/2000/svg" xmlns:xlink="http://www.w3.org/1999/xlink" x="0px" y="0px"
	 width="562.195px" height="700.866px" viewBox="0 -80.134 562.195 700.866" enable-background="new 0 -80.134 562.195 700.866"
	 xml:space="preserve">
<g>
	<ellipse fill="#FFEFC5" cx="265.371" cy="552.773" rx="187.771" ry="36.462"/>
	<ellipse fill="#FCD689" cx="274.486" cy="543.964" rx="122.144" ry="20.965"/>
	<path fill="#A8872F" d="M322.638,455.501l-0.806,87.693c0,0-21.723,9.654-24.938-2.414c0,0,2.412-8.045,17.697-5.631v-79.648
		H322.638L322.638,455.501z"/>
	<path fill="#A8872F" d="M238.772,453.069l-0.805,87.693c0,0-21.722,9.656-24.939-2.412c0,0,2.413-8.045,17.697-5.631v-79.65
		H238.772z"/>
	<path fill="#FCCC45" d="M208.161,470.841c0,0-288.39-16.711-83.402-323.368c0,0,93.212-127.196,52.714-199.198
		c0,0,165.594,75.456,142.43,224.219c0,0,71.256-17.793,55.596-99.288c0,0,209.705,177.016,114.391,322.887
		C489.888,396.095,432.368,500.468,208.161,470.841z"/>
	<path fill="#F9BD44" d="M215.931,471.575c0,0-270.42-15.174-79.435-272.351c0,0,119.72-132.807,81.474-193.533
		c0,0,91.151,65.63,67.452,211.474c0,0,120.319-16.407,109.384-98.444c0,0,173.188,160.427,84.945,291.061
		C479.751,409.784,426.231,497.362,215.931,471.575z"/>
	<circle fill="#EEE8D4" cx="207.517" cy="316.131" r="28.848"/>
	<circle fill="#DD5D2C" cx="207.517" cy="316.131" r="17.628"/>
	<circle fill="#EEE8D4" cx="320.647" cy="317.128" r="28.848"/>
	<circle fill="#DD5D2C" cx="320.647" cy="317.128" r="17.629"/>
	<g>
		<polygon fill="#F7A938" points="282.486,272.959 337.394,236.953 342.655,244.979 287.744,280.985 		"/>
	</g>
	<g>
		<polygon fill="#F7A938" points="246.662,274.164 191.755,238.159 186.494,246.183 241.403,282.188 		"/>
	</g>
	<g>
		<ellipse fill="#D46E33" cx="263.722" cy="383.116" rx="34.155" ry="27.092"/>
		<ellipse fill="#FEEAC7" cx="255.476" cy="365.448" rx="6.676" ry="7.066"/>
		<ellipse fill="#FEEAC7" cx="271.181" cy="365.448" rx="6.281" ry="7.066"/>
		<g>
			<path fill="#F39740" d="M237.639,403.716c-6.791-5.053-11.295-12.363-11.295-20.623l0,0c0-8.26,4.504-15.57,11.295-20.625l0,0
				c6.814-5.082,15.999-8.107,26.083-8.115l0,0c10.082,0.008,19.265,3.033,26.076,8.115l0,0
				c6.795,5.055,11.299,12.365,11.299,20.625l0,0c0,8.26-4.504,15.57-11.299,20.623l0,0c-6.812,5.082-15.994,8.111-26.076,8.117l0,0
				C253.638,411.827,244.453,408.798,237.639,403.716L237.639,403.716z M285.945,398.56c5.569-4.182,8.71-9.633,8.712-15.467l0,0
				c-0.002-5.834-3.143-11.283-8.712-15.467l0,0c-5.548-4.154-13.44-6.84-22.224-6.834l0,0c-8.783-0.006-16.681,2.68-22.229,6.834
				l0,0c-5.568,4.184-8.709,9.633-8.711,15.467l0,0c0.002,5.834,3.143,11.285,8.711,15.467l0,0
				c5.549,4.154,13.446,6.84,22.229,6.834l0,0C272.503,405.399,280.397,402.714,285.945,398.56L285.945,398.56z"/>
		</g>
	</g>
	<path fill="#F6AB42" d="M112.235,273.682c0,0-78.391,131.952,63.807,173.186C176.041,446.868,70.304,407.282,112.235,273.682z"/>
	<path fill="#F6AB42" d="M437.331,248.159c0,0,136.096,136.713-55.289,198.711C382.042,446.868,522.392,362.616,437.331,248.159z"/>
</g>
</svg>
