<?xml version="1.0" encoding="utf-8"?>
<!-- Generator: Adobe Illustrator 15.0.2, SVG Export Plug-In . SVG Version: 6.00 Build 0)  -->
<!DOCTYPE svg PUBLIC "-//W3C//DTD SVG 1.1//EN" "http://www.w3.org/Graphics/SVG/1.1/DTD/svg11.dtd">
<svg version="1.1" id="Layer_1" xmlns="http://www.w3.org/2000/svg" xmlns:xlink="http://www.w3.org/1999/xlink" x="0px" y="0px"
	 width="504.878px" height="676.829px" viewBox="0 0 504.878 676.829" enable-background="new 0 0 504.878 676.829"
	 xml:space="preserve">
<g>
	<ellipse fill="#FFEFC5" cx="234.981" cy="621.554" rx="187.773" ry="36.462"/>
	<ellipse fill="#FCD689" cx="244.096" cy="612.744" rx="122.145" ry="20.965"/>
	<path fill="#A8872F" d="M292.249,524.281l-0.805,87.694c0,0-21.723,9.655-24.939-2.413c0,0,2.412-8.045,17.698-5.631v-79.65
		H292.249z"/>
	<path fill="#A8872F" d="M208.382,521.851l-0.805,87.693c0,0-21.722,9.656-24.939-2.412c0,0,2.413-8.045,17.697-5.632v-79.649
		H208.382z"/>
	<path fill="#FCCC45" d="M177.771,539.622c0,0-288.39-16.711-83.402-323.37c0,0,93.212-127.196,52.714-199.198
		c0,0,165.596,75.456,142.432,224.219c0,0,71.256-17.793,55.595-99.288c0,0,209.705,177.016,114.391,322.889
		C459.499,464.875,401.98,569.249,177.771,539.622z"/>
	<path fill="#F9BD44" d="M185.541,540.355c0,0-270.42-15.173-79.435-272.351c0,0,119.719-132.807,81.474-193.533
		c0,0,91.153,65.63,67.453,211.474c0,0,120.321-16.407,109.384-98.444c0,0,173.189,160.428,84.946,291.063
		C449.363,478.564,395.844,566.144,185.541,540.355z"/>
	<circle fill="#EEE8D4" cx="177.127" cy="384.911" r="28.849"/>
	<circle fill="#DD5D2C" cx="177.127" cy="384.91" r="17.629"/>
	<circle fill="#EEE8D4" cx="290.26" cy="385.908" r="28.849"/>
	<circle fill="#DD5D2C" cx="290.26" cy="385.908" r="17.629"/>
	<g>
		<polygon fill="#F7A938" points="252.097,341.738 307.005,305.732 312.267,313.758 257.356,349.764 252.097,341.738 		"/>
	</g>
	<g>
		<polygon fill="#F7A938" points="216.272,342.943 161.365,306.938 156.104,314.962 211.013,350.967 216.272,342.943 		"/>
	</g>
	<g>
		<ellipse fill="#D46E33" cx="233.331" cy="451.897" rx="34.158" ry="27.091"/>
		<ellipse fill="#FEEAC7" cx="225.085" cy="434.229" rx="6.676" ry="7.067"/>
		<ellipse fill="#FEEAC7" cx="240.79" cy="434.229" rx="6.282" ry="7.067"/>
		<g>
			<path fill="#F39740" d="M207.249,472.497c-6.791-5.053-11.295-12.363-11.295-20.623l0,0c0-8.26,4.504-15.57,11.295-20.626l0,0
				c6.814-5.081,15.998-8.107,26.082-8.114l0,0c10.082,0.007,19.266,3.033,26.079,8.114l0,0
				c6.794,5.056,11.298,12.366,11.298,20.626l0,0c0,8.26-4.504,15.57-11.298,20.623l0,0c-6.813,5.081-15.997,8.11-26.079,8.116l0,0
				C223.247,480.607,214.063,477.578,207.249,472.497L207.249,472.497z M255.556,467.341c5.57-4.183,8.711-9.633,8.713-15.467l0,0
				c-0.002-5.835-3.143-11.284-8.713-15.467l0,0c-5.549-4.155-13.442-6.841-22.225-6.834l0,0c-8.782-0.007-16.68,2.679-22.229,6.834
				l0,0c-5.568,4.183-8.709,9.632-8.711,15.467l0,0c0.002,5.834,3.143,11.284,8.711,15.467l0,0
				c5.549,4.154,13.446,6.84,22.229,6.833l0,0C242.113,474.181,250.007,471.495,255.556,467.341L255.556,467.341z"/>
		</g>
	</g>
	<path fill="#F6AB42" d="M81.845,342.461c0,0-78.391,131.953,63.807,173.188C145.651,515.649,39.914,476.063,81.845,342.461z"/>
	<path fill="#F6AB42" d="M406.943,316.938c0,0,136.095,136.715-55.289,198.712C351.654,515.649,492.003,431.396,406.943,316.938z"/>
</g>
</svg>
