<?xml version="1.0" encoding="utf-8"?>
<!-- Generator: Adobe Illustrator 15.0.2, SVG Export Plug-In . SVG Version: 6.00 Build 0)  -->
<!DOCTYPE svg PUBLIC "-//W3C//DTD SVG 1.1//EN" "http://www.w3.org/Graphics/SVG/1.1/DTD/svg11.dtd">
<svg version="1.1" id="Layer_1" xmlns="http://www.w3.org/2000/svg" xmlns:xlink="http://www.w3.org/1999/xlink" x="0px" y="0px"
	 width="562.195px" height="700.866px" viewBox="0 -80.134 562.195 700.866" enable-background="new 0 -80.134 562.195 700.866"
	 xml:space="preserve">
<g>
	<path fill="#CEE3EC" d="M209.048,514.764c0,0-261.889,19.379-85.351,63.361c0,0,119.785,28.627,250.015,7.286
		c0,0,192.774-32.17,8.689-44.61c0,0,21.99-27.826-76.425-27.733C305.977,513.067,250.95,513.276,209.048,514.764z"/>
	<ellipse fill="#B0D2E2" cx="228.175" cy="545.204" rx="38.278" ry="11.85"/>
	<ellipse fill="#B0D2E2" cx="331.162" cy="542.014" rx="33.721" ry="10.481"/>
	<path fill="#6D818B" d="M214.663,455.59l0.803,87.694c0,0,21.723,9.653,24.94-2.414c0,0-2.413-8.045-17.698-5.631V455.59H214.663z"
		/>
	<path fill="#6D818B" d="M320.404,453.158l0.805,87.692c0,0,21.723,9.656,24.94-2.411c0,0-2.413-8.045-17.698-5.632v-79.649H320.404
		L320.404,453.158z"/>
	<polygon fill="#B0D2E2" points="167.016,142.544 172.197,471.952 530.67,457.822 536.943,125.698 	"/>
	<polygon fill="#DAEAF1" points="536.943,125.698 384.398,26.973 26.476,63.138 165.801,142.572 	"/>
	<polygon fill="#C2DBE8" points="172.091,471.846 46.455,452.83 26.631,63.085 162.073,139.01 	"/>
	<path fill="#B0D2E2" d="M494.178,501.354c0,4.753-3.852,8.604-8.604,8.604c-4.75,0-8.604-3.853-8.604-8.604
		c0-4.75,8.604-28.498,8.604-28.498S494.178,496.604,494.178,501.354z"/>
	<path fill="#B0D2E2" d="M91.325,486.125c0,5.76-4.668,10.428-10.426,10.428c-5.759,0-10.427-4.668-10.427-10.428
		c0-5.757,10.427-34.536,10.427-34.536S91.325,480.368,91.325,486.125z"/>
	<g>
		<path fill="#CEE3EC" d="M412.295,197.731h0.002l9.112-0.208c0.278,12.176,5.45,23.045,13.607,30.848l0,0
			c8.166,7.794,19.262,12.465,31.438,12.19l0,0l0.208,9.111C437.304,250.338,412.969,227.088,412.295,197.731L412.295,197.731z"/>
	</g>
	<path fill="#DAEAF1" d="M49.703,353.058c0,5.758-4.668,10.426-10.426,10.426c-5.759,0-10.427-4.668-10.427-10.426
		c0-5.759,10.427-34.539,10.427-34.539S49.703,347.299,49.703,353.058z"/>
	<polygon fill="#BDD9E8" points="165.922,307.886 395.555,463.105 504.842,458.183 166.639,285.989 	"/>
	<polygon fill="#BDD9E8" points="164.451,190.009 531.758,359.11 532.752,349.363 163.842,163.281 	"/>
	<polygon fill="#BDD9E8" points="531.43,398.015 236.8,271.019 531.156,439.35 	"/>
	<polygon fill="#BDD9E8" points="369.798,133.06 535.337,196.143 534.922,177.918 430.517,130.46 	"/>
	<circle fill="#EFE9DB" cx="316.968" cy="309.934" r="28.849"/>
	<circle fill="#7F98A3" cx="316.968" cy="309.936" r="17.629"/>
	<circle fill="#EFE9DB" cx="430.034" cy="305.899" r="28.849"/>
	<circle fill="#7F98A3" cx="430.034" cy="305.9" r="17.628"/>
	<g>
		
			<ellipse transform="matrix(-0.0228 -0.9997 0.9997 -0.0228 11.1142 760.3744)" fill="#758C98" cx="377.173" cy="374.755" rx="27.95" ry="20.052"/>
		<path fill="#9DBBC9" d="M360.547,397.047c-4.261-5.68-6.854-13.313-7.052-21.735l0,0c-0.186-8.422,2.056-16.164,6.055-22.032l0,0
			c3.966-5.839,9.941-9.936,16.916-10.095l0,0c6.975-0.158,13.13,3.662,17.356,9.312l0,0c4.263,5.68,6.854,13.312,7.055,21.732l0,0
			c0.184,8.425-2.057,16.168-6.057,22.033l0,0c-3.965,5.84-9.941,9.937-16.914,10.098l0,0
			C370.932,406.518,364.775,402.698,360.547,397.047L360.547,397.047z M365.569,357.394c-3.024,4.41-4.953,10.742-4.786,17.752l0,0
			c0.151,7.012,2.367,13.248,5.59,17.518l0,0c3.259,4.294,7.27,6.504,11.367,6.408l0,0c4.096-0.091,8.001-2.479,11.06-6.92l0,0
			c3.026-4.411,4.954-10.742,4.786-17.754l0,0c-0.152-7.01-2.365-13.246-5.59-17.517l0,0c-3.258-4.296-7.268-6.504-11.364-6.407l0,0
			c-0.002,0-0.004,0-0.007,0l0,0C372.53,350.567,368.627,352.956,365.569,357.394L365.569,357.394z"/>
	</g>
	<polygon fill="#E7F1F6" points="179.137,141.052 536.943,125.698 518.268,113.874 	"/>
	<polygon fill="#CAE1EC" points="165.943,202.131 35.672,246.429 39.93,326.56 168.854,383.183 	"/>
	<polygon fill="#B0D2E2" points="161.246,156.047 33.405,200.29 32.796,173.562 121.454,116.84 166.988,141.329 	"/>
	<g>
		<path fill="#CEE3EC" d="M267.334,243.89c12.176-0.279,23.045-5.45,30.848-13.608l0,0c7.795-8.167,12.466-19.261,12.188-31.438l0,0
			h0.002l9.11-0.208c0.666,29.358-22.584,53.692-51.941,54.365l0,0L267.334,243.89L267.334,243.89z"/>
	</g>
	<polygon fill="#CEE3EC" points="483.006,117.591 207.833,45.451 69.567,59.543 431.974,118.753 	"/>
	<polygon fill="#A7C6D5" points="316.951,465.248 171.474,402.014 170.895,416.614 242.279,468.772 	"/>
	<polygon fill="#DAEAF1" points="179.11,139.837 172.091,471.846 162.073,139.01 	"/>
	<path fill="#CEE3EC" d="M529.844,565.256c0,4.529-10.812,8.201-24.149,8.201c-13.341,0-24.152-3.672-24.152-8.201
		c0-4.532,10.812-8.203,24.152-8.203C519.031,557.053,529.844,560.724,529.844,565.256z"/>
	<ellipse fill="#CEE3EC" cx="468.326" cy="585.761" rx="14.127" ry="5.013"/>
	<ellipse fill="#CEE3EC" cx="133.39" cy="508.292" rx="20.051" ry="6.836"/>
	<path fill="#DAEAF1" d="M78.708,551.583c0,0,122.125,43.747,318.986,24.608C397.693,576.192,168.023,608.091,78.708,551.583z"/>
	<path fill="#DAEAF1" d="M131.127,249.16c0,5.759-4.668,10.427-10.426,10.427c-5.759,0-10.427-4.668-10.427-10.427
		c0-5.758,10.427-34.538,10.427-34.538S131.127,243.402,131.127,249.16z"/>
	<path fill="#CEE3EC" d="M505.708,188.744c0,9.259-7.507,16.766-16.767,16.766c-9.261,0-16.769-7.507-16.769-16.766
		c0-9.26,16.769-55.54,16.769-55.54S505.708,179.484,505.708,188.744z"/>
	<path fill="#C2DBE8" d="M398.758,173.071c0,6.24-5.061,11.298-11.299,11.298c-6.24,0-11.3-5.058-11.3-11.298
		c0-6.24,11.3-37.427,11.3-37.427S398.758,166.831,398.758,173.071z"/>
</g>
</svg>
